<svg xmlns="http://www.w3.org/2000/svg" viewBox="0 0 483 527.48"><defs><style>.cls-1{fill:#4e5c59;}.cls-2{fill:#3aac3d;}.cls-3{fill:#cfccbe;}.cls-4{fill:none;stroke:#000;stroke-width:3px;}</style></defs><title>Hightower-Shield</title><g id="Layer_2" data-name="Layer 2"><path class="cls-1" d="M923,121.76V327.6a314.37,314.37,0,0,1-2.28,38c-.11.93-.24,1.86-.36,2.79s-.24,1.86-.39,2.79q-.7,5.05-1.61,10c-.07.44-.15.87-.23,1.31-.15.8-.29,1.6-.45,2.39s-.34,1.8-.51,2.69l-.45,2.22-.24,1.16c-.15.71-.3,1.44-.47,2.15q-.8,3.55-1.61,7l-.58,2.32-.52,2q-1.52,5.88-3.27,11.61c-.29,1-.59,1.94-.9,2.92l-.6,1.88c-.19.63-.39,1.25-.6,1.86l-1.1,3.26c-.37,1.09-.68,2-1,3-.47,1.28-.92,2.55-1.39,3.81-.36,1-.73,2-1.11,3l-.19.49c-.43,1.14-.87,2.25-1.32,3.37s-.87,2.16-1.32,3.19a3.35,3.35,0,0,1-.18.42c-.4,1-.8,2-1.25,3s-.75,1.75-1.13,2.62l-.66,1.49c-.47,1.07-.95,2.12-1.44,3.15s-.9,2-1.36,2.93l-1,2.12c-.3.63-.6,1.25-.91,1.88-.63,1.32-1.31,2.64-2,4q-2.53,5-5.19,9.77l-2,3.57-.11.21q-2.13,3.71-4.33,7.33c-.71,1.2-1.46,2.39-2.18,3.54-.1.16-.19.31-.3.46-.55.89-1.12,1.78-1.69,2.66l-.66,1c-.65,1-1.31,2-2,3l-.13.18c-.66,1-1.32,2-2,3l-.45.67q-2.26,3.28-4.54,6.46l-.31.42c-.8,1.07-1.54,2.14-2.31,3.19s-1.66,2.23-2.5,3.32q-2.29,3-4.61,6l-.8,1c-.73.93-1.48,1.85-2.22,2.76L850,525.61l-.57.69L847,529.1q-2.83,3.32-5.72,6.53c-.75.85-1.52,1.69-2.29,2.51l-2.22,2.39q-3,3.19-5.93,6.24-2.76,2.83-5.53,5.59c-.91.91-1.84,1.82-2.76,2.71s-1.85,1.78-2.78,2.67l-2.28,2.11c-.68.65-1.36,1.28-2.05,1.91a448.64,448.64,0,0,1-61.76,47.47c-.86.55-1.73,1.1-2.58,1.6q-6.42,4.07-12.46,7.63l-2.41,1.4-2.36,1.36-2.34,1.35-2.22,1.28c-8.35,4.68-15.91,8.59-22.38,11.76l-1.61.8c-10.63,5.15-18.11,8.22-21,9.35l-.42.18-.61.23-.14.06h-.08l-.23-.1-.21,0-1.07-.42-.55-.23c-.87-.34-2-.8-3.36-1.38l-.47-.18c-1.76-.8-3.88-1.67-6.33-2.77l-1.39-.61a443.16,443.16,0,0,1-39.74-20.6c-.8-.45-1.61-.92-2.36-1.38a473.14,473.14,0,0,1-44.78-30l-2.62-2c-1-.75-2-1.52-2.95-2.29l-2.81-2.21c-6.19-4.92-12.43-10.15-18.64-15.69L554.08,565q-2.3-2.05-4.59-4.2l-1.67-1.57L546,557.54l-2-1.94c-1.12-1.07-2.24-2.16-3.34-3.26-.84-.8-1.69-1.67-2.52-2.51l-.24-.26q-1.25-1.25-2.5-2.51c-.66-.68-1.32-1.36-2-2l-2-2.07-.13-.15-2.1-2.24q-3.36-3.61-6.66-7.36c-.68-.8-1.36-1.55-2-2.35-.57-.65-1.12-1.28-1.66-1.94l-2-2.39q-4.26-5.11-8.39-10.48-1.13-1.45-2.24-2.92c-1.89-2.47-3.73-5-5.57-7.55l-1.68-2.39c-.13-.16-.24-.34-.36-.5-.59-.85-1.19-1.7-1.77-2.55-.95-1.38-1.89-2.77-2.82-4.17q-1.11-1.64-2.18-3.31l-.15-.24-2.22-3.47c-.07-.13-.15-.24-.22-.37-.71-1.14-1.41-2.27-2.1-3.4s-1.49-2.46-2.21-3.7-1.44-2.39-2.13-3.67q-4.6-8-8.77-16.47c-.35-.69-.69-1.38-1-2.08-.22-.44-.44-.89-.65-1.35-.43-.87-.8-1.75-1.25-2.63a27.17,27.17,0,0,1-1.15-2.47l-.23-.48c-.26-.58-.52-1.16-.8-1.75l-.26-.57c-.26-.58-.52-1.18-.8-1.77q-1.44-3.26-2.78-6.58c-.42-1-.8-2-1.23-3.07-.1-.26-.21-.53-.31-.8-.4-1-.8-2-1.16-3s-.68-1.82-1-2.74l-.23-.65c-.18-.45-.34-.91-.5-1.36q-1-2.69-1.89-5.44c-.21-.6-.4-1.21-.6-1.8-.26-.8-.51-1.54-.75-2.31-.14-.42-.26-.8-.39-1.22-.26-.8-.5-1.6-.75-2.39-.31-1-.61-2.06-.92-3.1-.18-.65-.39-1.28-.57-2-.37-1.28-.74-2.58-1.08-3.89-.19-.68-.37-1.35-.55-2-.13-.5-.26-1-.39-1.51-.32-1.22-.63-2.46-.92-3.7-.18-.7-.35-1.4-.52-2.11-.07-.29-.13-.57-.19-.85-.37-1.55-.71-3.11-1.07-4.69-.26-1.16-.5-2.33-.74-3.5-.14-.71-.29-1.43-.43-2.14s-.32-1.6-.47-2.45a2.13,2.13,0,0,0-.1-.47c-.15-.8-.3-1.64-.45-2.48s-.31-1.84-.47-2.77-.3-1.8-.45-2.71q-.87-5.52-1.56-11.17A314.73,314.73,0,0,1,443,327.58V121.76Z" transform="translate(-441.5 -120.26)"/></g><g id="Layer_7" data-name="Layer 7"><path class="cls-2" d="M669.75,279s-20.25-2.25-29.5-13.5-9.5-45.75-2-54.25,15-21.5,15.25-24.5-5.31-1.25-2.15-6.25c0,0,15.15-4,10.65,29.25,0,0,5.5-2.5,6.25-21s3-14.25-.75-32.25,2.25-11.5,2.25-11.5,6.25,17.5,18,22.75,16.5,18.5,12.5,37.75c0,0,.25,1.5,8.75-6.75s22.75-6.25,22.75-6.25-11.5,9.5-12.5,13.25S719,223.5,724,231.25s1.25,31-5.75,35.75-20.5,12.25-21.75,12-2-2,3.5-8.25S709.25,251,705.5,243c0,0-2.25,3.75-3.75,11.75S680.94,256,682.35,245s5.15-17.25,3.65-21.75-1.5,5.5-5.75,10.75S669.5,248.5,669,252s-1.5,11-3,11-11.25-18.75-12-19.75-2.25,11.75,3,20.25S670,276.25,669.75,279Z" transform="translate(-441.5 -120.26)"/><path class="cls-2" d="M603.5,280.17s-1.83-4.5,2-3.83,10.5,7.83,20.67,8.17,32.5-2.17,36.5,7.17c0,0,1.67,2.83-15.17,0s-21.67.67-28.17,0S603.5,280.17,603.5,280.17Z" transform="translate(-441.5 -120.26)"/><path class="cls-2" d="M635.69,274.11a1.92,1.92,0,0,0-.81-2.41c-3.45-2.08-13.68-9.2-14.38-20.69-.83-13.83.83-30-4.17-34.83s-16.83-16.17-17-19.67-4.83-.83-2.33,7.5,6.83,9.67,7.17,14.17,1,31.83,2.5,38.17,12,17.33,17.5,18.5C628.88,275.83,634.33,277,635.69,274.11Z" transform="translate(-441.5 -120.26)"/><path class="cls-2" d="M637.17,199.17s1.5-10.33,0-12.83-.67-8.83-3.17-7.67-1.83,5.5-3.33,5.5-1.5,0-2.67-2.33c-.37-.75-5.33-5-5.33-6.5s-.33-3.67-1.33-3.67-4.83,4-2.83,9,8,7.67,10.67,10.83S634.67,193.17,637.17,199.17Z" transform="translate(-441.5 -120.26)"/><path class="cls-2" d="M597,219a1.14,1.14,0,0,1-1.76.23,43.78,43.78,0,0,0-7.36-5.55c-1.82-.86-2.42-4,0-5.08S602.77,209.35,597,219Z" transform="translate(-441.5 -120.26)"/><path class="cls-2" d="M598.52,256.08s-1.44-9.67-5.27-13-10.25-12-11.33-14.42a72,72,0,0,1-3.25-9.58c-.67-2.67-3.83-.67-3.5,2s-.42,15.92.42,18.33,7.92,4.5,11.25,8.58S597.21,259.83,598.52,256.08Z" transform="translate(-441.5 -120.26)"/><path class="cls-2" d="M712.08,186.75s-3-1.75-2.92-5c.07-2.89.67-2.75,1.86-1.75a.42.42,0,0,0,.68-.19,15.64,15.64,0,0,0,.38-7.73c-.95-4,13.87-8.36,19.23-11a1.29,1.29,0,0,1,1.55.3c.77.89,1.5,2.51-1.11,4.12-3.92,2.42-11.08,7.08-11.67,8.67S714.25,184.92,712.08,186.75Z" transform="translate(-441.5 -120.26)"/><path class="cls-2" d="M720.75,276.38s6.63-6,11-8.12,7-5.37,7.75-15.75.13-25.12,2-29.75S751.63,203,767.13,197.5c0,0,4.25,2-3.37,10.63-6.9,7.81-6.53,39.68-6.4,45.66a3.18,3.18,0,0,1-1.16,2.57,9.39,9.39,0,0,1-3.18,1.54,4.89,4.89,0,0,0-3.15,3.05,45.4,45.4,0,0,0-2,8.06C746.63,276.63,722.88,278.63,720.75,276.38Z" transform="translate(-441.5 -120.26)"/><path class="cls-2" d="M768.07,265.85a1.45,1.45,0,0,1-2.36-.13A17.27,17.27,0,0,1,763.25,254c1.13-8.12,7.25-17.25,11.75-19.75s7.5-20.87,8.5-21.75,4.88-3.25,5.5,11.38-11.53,20.59-13,22.38c-1.87,2.32-6.79,8.88-6.54,13.38C769.68,262.81,769,264.62,768.07,265.85Z" transform="translate(-441.5 -120.26)"/><path class="cls-2" d="M700.23,299.05c-.72,1.53-3.25,0-3-1.69.62-4.65,4.11-14.9,14.17-15.74,13.5-1.12,31.25,2,35,0s11.25-9.12,13.13-9.25,4.38,3.75-1.75,9.63-10.82,8.63-13.22,9.38-9.28-.62-10.9.63-.8,3.27-2.87,3.75c-6.66,1.54-14.48-4.13-20.25-4.75C706.74,290.6,702.25,294.75,700.23,299.05Z" transform="translate(-441.5 -120.26)"/></g><g id="Layer_5" data-name="Layer 5"><path class="cls-3" d="M749.74,558.25v45.26a16.11,16.11,0,0,1-1.44,6.67l-1.06,2.32-17.75,10.75-39,19.75L683,644.25h0L675.5,643l-39-19.75L618.75,612.5l-1.06-2.32a16.11,16.11,0,0,1-1.44-6.67V558.25s-.75-5.5,11.75-5.5V488.5H738v64.25C750.49,552.75,749.74,558.25,749.74,558.25Z" transform="translate(-441.5 -120.26)"/><polygon class="cls-3" points="311.33 330.07 303.67 341.07 178.83 341.07 171.17 330.07 311.33 330.07"/><polygon class="cls-3" points="301.33 344.91 296.17 351.91 296.17 363.74 186.33 363.74 186.33 351.91 181.17 344.91 301.33 344.91"/><rect class="cls-3" x="171.17" y="308.24" width="140.16" height="17.67"/><polygon class="cls-3" points="286.5 272.57 286.5 277.24 285 277.24 285 308.24 196.83 308.24 196.83 277.24 195.33 277.24 195.33 272.57 198.5 272.57 198.5 270.24 283.33 270.24 283.33 272.57 286.5 272.57"/><polygon class="cls-3" points="284.63 233.87 284.63 267.62 283.38 270.24 198.5 270.24 197.25 267.62 197.25 233.86 241.5 233.86 284.63 233.87"/><rect class="cls-3" x="211.75" y="219.24" width="59" height="14.62"/><path class="cls-3" d="M653.25,339.5,651,338v-2.25h2.25l2.5-18h3.63V328s2.13,2.38,3.13-.5v-9.75h7.88v10s1.88,2.75,2.75-.12v-9.87h8.13v10.13a1.57,1.57,0,0,0,1.75.75c1.25-.25.88-.25.88-1.75v-9.12H692V328s2.25,2.25,2.75-.25v-10h8.13v9.88s1.88,2.63,2.88,0v-9.87h3.63l2.88,18h2.5v2.63l-2.5,1.13Z" transform="translate(-441.5 -120.26)"/></g><g id="Layer_6" data-name="Layer 6"><polygon class="cls-1" points="174.75 475.24 308.24 475.24 308.24 477.91 174.74 477.91 174.75 475.24"/><polygon class="cls-1" points="174.75 456.77 308.24 456.77 308.24 459.43 174.74 459.43 174.75 456.77"/><polygon class="cls-1" points="174.75 441.02 308.24 441.02 308.24 443.68 174.74 443.68 174.75 441.02"/><rect class="cls-1" x="202.17" y="374.74" width="3.46" height="58.5"/><rect class="cls-1" x="234.92" y="374.74" width="3.46" height="58.5"/><rect class="cls-1" x="244.38" y="374.74" width="3.46" height="58.5"/><rect class="cls-1" x="267.88" y="374.74" width="3.46" height="58.5"/><rect class="cls-1" x="277.13" y="374.74" width="3.46" height="58.5"/><rect class="cls-1" x="211.54" y="374.74" width="3.46" height="58.5"/><rect class="cls-1" x="185.67" y="481.74" width="1.5" height="7.67"/><rect class="cls-1" x="212.83" y="481.74" width="1.5" height="7.67"/><rect class="cls-1" x="221.63" y="511.72" width="38.63" height="1.19"/><rect class="cls-1" x="240.45" y="481.74" width="1.5" height="7.67"/><rect class="cls-1" x="237.64" y="501.87" width="1.5" height="7.67"/><rect class="cls-1" x="243.39" y="501.87" width="1.5" height="7.67"/><rect class="cls-1" x="268.03" y="481.74" width="1.5" height="7.67"/><rect class="cls-1" x="295.2" y="481.74" width="1.5" height="7.67"/><polygon class="cls-1" points="186.5 432.49 296.49 432.49 305.49 433.99 177.5 433.99 186.5 432.49"/><polygon class="cls-1" points="185.84 351.24 296.47 351.24 296.47 352.49 186.33 352.49 185.84 351.24"/><polygon class="cls-1" points="188.34 317.91 298.97 317.91 298.97 319.16 188.83 319.16 188.34 317.91"/><polygon class="cls-1" points="196.75 306.99 285 306.99 285 308.24 197.15 308.24 196.75 306.99"/><polygon class="cls-1" points="196.75 276.74 285 276.74 285 277.99 197.15 277.99 196.75 276.74"/><polygon class="cls-1" points="210.25 217.99 273.08 217.99 271.08 219.24 211.52 219.24 210.25 217.99"/><polygon class="cls-1" points="193.5 352.49 193.5 358.32 200 358.32 200 351.87 193.5 351.87 193.5 352.49"/><polygon class="cls-1" points="208.29 352.49 208.29 358.32 214.79 358.32 214.79 351.87 208.29 351.87 208.29 352.49"/><polygon class="cls-1" points="221.88 352.49 221.88 358.32 228.38 358.32 228.38 351.87 221.88 351.87 221.88 352.49"/><polygon class="cls-1" points="237.9 352.49 237.9 358.32 244.4 358.32 244.4 351.87 237.9 351.87 237.9 352.49"/><polygon class="cls-1" points="253.82 352.49 253.82 358.32 260.32 358.32 260.32 351.87 253.82 351.87 253.82 352.49"/><polygon class="cls-1" points="267.55 352.49 267.55 358.32 274.05 358.32 274.05 351.87 267.55 351.87 267.55 352.49"/><polygon class="cls-1" points="282.63 352.49 282.63 358.32 289.13 358.32 289.13 351.87 282.63 351.87 282.63 352.49"/><rect class="cls-1" x="202.83" y="277.99" width="1.5" height="30.25"/><rect class="cls-1" x="278.42" y="277.99" width="1.5" height="30.25"/><path class="cls-1" d="M650.75,390.5l.5-30.69s.08-1.23,2-1.23,2.17,1.14,2.17,1.14V390.5Z" transform="translate(-441.5 -120.26)"/><path class="cls-1" d="M664.5,390.5l.5-30.69s.08-1.23,2-1.23,2.17,1.14,2.17,1.14V390.5Z" transform="translate(-441.5 -120.26)"/><path class="cls-1" d="M680.42,390.5l.5-30.69s.08-1.23,2-1.23,2.17,1.14,2.17,1.14V390.5Z" transform="translate(-441.5 -120.26)"/><path class="cls-1" d="M695.75,390.5l.5-30.69s.08-1.23,2-1.23,2.17,1.14,2.17,1.14V390.5Z" transform="translate(-441.5 -120.26)"/><path class="cls-1" d="M709.92,390.5l.5-30.69s.08-1.23,2-1.23,2.17,1.14,2.17,1.14V390.5Z" transform="translate(-441.5 -120.26)"/></g><g id="Layer_4" data-name="Layer 4"><path class="cls-4" d="M923,121.76V327.6a314.37,314.37,0,0,1-2.28,38c-.11.93-.24,1.86-.36,2.79s-.24,1.86-.39,2.79q-.7,5.05-1.61,10c-.07.44-.15.87-.23,1.31-.15.8-.29,1.6-.45,2.39s-.34,1.8-.51,2.69l-.45,2.22-.24,1.16c-.15.71-.3,1.44-.47,2.15q-.8,3.55-1.61,7l-.58,2.32-.52,2q-1.52,5.88-3.27,11.61c-.29,1-.59,1.94-.9,2.92l-.6,1.88c-.19.63-.39,1.25-.6,1.86l-1.1,3.26c-.37,1.09-.68,2-1,3-.47,1.28-.92,2.55-1.39,3.81-.36,1-.73,2-1.11,3l-.19.49c-.43,1.14-.87,2.25-1.32,3.37s-.87,2.16-1.32,3.19a3.35,3.35,0,0,1-.18.42c-.4,1-.8,2-1.25,3s-.75,1.75-1.13,2.62l-.66,1.49c-.47,1.07-.95,2.12-1.44,3.15s-.9,2-1.36,2.93l-1,2.12c-.3.63-.6,1.25-.91,1.88-.63,1.32-1.31,2.64-2,4q-2.53,5-5.19,9.77l-2,3.57-.11.21q-2.13,3.71-4.33,7.33c-.71,1.2-1.46,2.39-2.18,3.54-.1.16-.19.31-.3.46-.55.89-1.12,1.78-1.69,2.66l-.66,1c-.65,1-1.31,2-2,3l-.13.18c-.66,1-1.32,2-2,3l-.45.67q-2.26,3.28-4.54,6.46l-.31.42c-.8,1.07-1.54,2.14-2.31,3.19s-1.66,2.23-2.5,3.32q-2.29,3-4.61,6l-.8,1c-.73.93-1.48,1.85-2.22,2.76L850,525.61l-.57.69L847,529.1q-2.83,3.32-5.72,6.53c-.75.85-1.52,1.69-2.29,2.51l-2.22,2.39q-3,3.19-5.93,6.24-2.76,2.83-5.53,5.59c-.91.91-1.84,1.82-2.76,2.71s-1.85,1.78-2.78,2.67l-2.28,2.11c-.68.65-1.36,1.28-2.05,1.91a448.64,448.64,0,0,1-61.76,47.47c-.86.55-1.73,1.1-2.58,1.6q-6.42,4.07-12.46,7.63l-2.41,1.4-2.36,1.36-2.34,1.35-2.22,1.28c-8.35,4.68-15.91,8.59-22.38,11.76l-1.61.8c-10.63,5.15-18.11,8.22-21,9.35l-.42.18-.61.23-.14.06h-.08l-.23-.1-.21,0-1.07-.42-.55-.23c-.87-.34-2-.8-3.36-1.38l-.47-.18c-1.76-.8-3.88-1.67-6.33-2.77l-1.39-.61a443.16,443.16,0,0,1-39.74-20.6c-.8-.45-1.61-.92-2.36-1.38a473.14,473.14,0,0,1-44.78-30l-2.62-2c-1-.75-2-1.52-2.95-2.29l-2.81-2.21c-6.19-4.92-12.43-10.15-18.64-15.69L554.08,565q-2.3-2.05-4.59-4.2l-1.67-1.57L546,557.54l-2-1.94c-1.12-1.07-2.24-2.16-3.34-3.26-.84-.8-1.69-1.67-2.52-2.51l-.24-.26q-1.25-1.25-2.5-2.51c-.66-.68-1.32-1.36-2-2l-2-2.07-.13-.15-2.1-2.24q-3.36-3.61-6.66-7.36c-.68-.8-1.36-1.55-2-2.35-.57-.65-1.12-1.28-1.66-1.94l-2-2.39q-4.26-5.11-8.39-10.48-1.13-1.45-2.24-2.92c-1.89-2.47-3.73-5-5.57-7.55l-1.68-2.39c-.13-.16-.24-.34-.36-.5-.59-.85-1.19-1.7-1.77-2.55-.95-1.38-1.89-2.77-2.82-4.17q-1.11-1.64-2.18-3.31l-.15-.24-2.22-3.47c-.07-.13-.15-.24-.22-.37-.71-1.14-1.41-2.27-2.1-3.4s-1.49-2.46-2.21-3.7-1.44-2.39-2.13-3.67q-4.6-8-8.77-16.47c-.35-.69-.69-1.38-1-2.08-.22-.44-.44-.89-.65-1.35-.43-.87-.8-1.75-1.25-2.63a27.17,27.17,0,0,1-1.15-2.47l-.23-.48c-.26-.58-.52-1.16-.8-1.75l-.26-.57c-.26-.58-.52-1.18-.8-1.77q-1.44-3.26-2.78-6.58c-.42-1-.8-2-1.23-3.07-.1-.26-.21-.53-.31-.8-.4-1-.8-2-1.16-3s-.68-1.82-1-2.74l-.23-.65c-.18-.45-.34-.91-.5-1.36q-1-2.69-1.89-5.44c-.21-.6-.4-1.21-.6-1.8-.26-.8-.51-1.54-.75-2.31-.14-.42-.26-.8-.39-1.22-.26-.8-.5-1.6-.75-2.39-.31-1-.61-2.06-.92-3.1-.18-.65-.39-1.28-.57-2-.37-1.28-.74-2.58-1.08-3.89-.19-.68-.37-1.35-.55-2-.13-.5-.26-1-.39-1.51-.32-1.22-.63-2.46-.92-3.7-.18-.7-.35-1.4-.52-2.11-.07-.29-.13-.57-.19-.85-.37-1.55-.71-3.11-1.07-4.69-.26-1.16-.5-2.33-.74-3.5-.14-.71-.29-1.43-.43-2.14s-.32-1.6-.47-2.45a2.13,2.13,0,0,0-.1-.47c-.15-.8-.3-1.64-.45-2.48s-.31-1.84-.47-2.77-.3-1.8-.45-2.71q-.87-5.52-1.56-11.17A314.73,314.73,0,0,1,443,327.58V121.76Z" transform="translate(-441.5 -120.26)"/></g></svg>